<?xml version="1.0" encoding="utf-8"?>
<!-- Generator: Adobe Illustrator 19.1.0, SVG Export Plug-In . SVG Version: 6.00 Build 0)  -->
<svg version="1.1" id="Layer_1" xmlns="http://www.w3.org/2000/svg" xmlns:xlink="http://www.w3.org/1999/xlink" x="0px" y="0px"
	 viewBox="0 0 100 60.8" style="enable-background:new 0 0 100 60.8;" xml:space="preserve">
<style type="text/css">
	.st0{fill:#FFFFFF;}
</style>
<path class="st0" d="M4.6,22.3H2.9v-1.5h1.7V22.3z M15.6,31.4l0.1,0.5l0.7,0.1l0.1,0.4c0,0,0.2,0.3,0.4,0.3c0.2,0,0-0.5,0-0.5
	l-0.6-0.6C16.3,31.6,15.9,31.4,15.6,31.4z M17,22.8c0,0-3.1,1.9-3.1,4.3c0,0,0.4,0.2,0.3,0.5c-0.1,1.1-0.9,1.2-1.1,2.8
	c0.3-0.4,0.7-1,1-1c0.7,0,0.6,1.4,0.6,1.4c-0.5,0.5-1.2,0.6-1.6,0.6c0,0,0,0.1,0,0.1c0,3.8,2.5,11,7.5,9.9h-1.7l0.4-1.3l0.5,0
	c0,0,0-1.4-0.6-1.4c-0.4,0-0.5,0.1-0.5,0.1l1,1l-0.1,0.1L19,40l-0.9-0.2l0.1-0.3l0.4-0.7l-0.5-0.3c0,0-0.1-0.9,0.3-1.4
	c0.1-0.2,0.2-0.4,0.1-0.6l-1.7,0.8c0.2-1.3-0.2-1.4-0.2-1.4l0.7-0.7l-1.1-0.9l1.3-0.6l0.2,0.1v-0.5l1-0.3l0.4,1.9h-1.1
	c0,0.4,0.1,0.7,0.1,0.7l1.5-0.6c0,0,0.6,2.2,0.6,2.8L21,37c0,0,1,0.8,1,2.1c0,0,0.4-0.6,0.4-2.5c0-0.6-1-4.4-1-5.2
	c0-0.9,0.5-1.3,0.5-1.3s-1.1-0.2-1.3-0.4l15.4,0.1v19.2h-5c0,0-0.8,0.2-1.8-0.8c0,0-0.6-0.3-1-0.4c-0.4-0.1-0.6-0.2-0.6-0.2
	l-4.1,2.1v1.7h-1.3v-1.9c0,0-0.6,0.3-1.8,0.3c-6.8,0-17.2-5-17-18.4c0-1.6,0.3-3.7,0.9-5.9c-1.9-0.3-2.2-1.3-2.2-1.3L2,24.1v0.6H0.5
	v-1.4H2v0.2c0.5,0,0.9,0.2,0.9,0.2c1.5,0,1.9-0.5,1.9-0.5v1.1c1.9-5.4,6.2-10.9,15-10.9c0.5,0,1.3,0.4,1.8,0.4
	c0.4,0,1.8-3.2,1.8-3.2l0,2.9c0,0,2.3,0.4,2.3,0.4s0,0.1,0.6,0.4c0.3,0.1,1,0.3,1.4,0.4c2.8,0.8,6.7,3.9,8.4,7.8v4H27
	c0,0-0.2-1.7-0.7-2.6c0,0-0.6,0.2-0.8-0.1c-0.1-0.3-0.1-0.6-0.1-0.6l-1.8-1.1H17V22.8z M29,46.7h0.4l-0.2-0.3L29,46.7z M23.5,40.8
	c0,0,0.1,0.4,0.6,0s3.5-1.9,3.5-4.3c0,0-1.4,0.4-4.1,0.3V40.8z M22,40.4h0.5v-0.2H22V40.4z M10.1,41.2H9.6v0.2h0.5V41.2z M12.6,43.8
	v0.3h0.6v-0.3H12.6z M63.9,48h1.5v-1.4h-1.5V48z M76.7,1.7L76.4,2l-0.3,0.2l-0.3,0.2l-0.2,0.2l-0.2,0.2l-0.2,0.2l-0.2,0.2l-0.1,0.2
	l-0.1,0.2L74.7,4l-0.1,0.2l-0.1,0.2l-0.1,0.2l0,0.2l0,0.2l0,0.2l0,0.2l0,0.3l0,0.3l0,0.3l0,0.3l0,0.3l0,0.3l0,0.3l0,0.3l0,0.3l0,0.4
	l0,0.4l0,0.4l0,0.4l0,0.4l0,0.5l-0.1,0.4l-0.1,0.4L74,12l-0.1,0.4l-0.1,0.4l-0.1,0.4l-0.1,0.4l-0.2,0.4l-0.2,0.4L73,14.7L72.8,15
	l-0.2,0.3l-0.2,0.3L72.1,16l-0.3,0.3l-0.3,0.3l-0.3,0.3L71,17.1l-0.3,0.2l-0.3,0.2L70,17.7l-0.4,0.2L69.3,18L69,18.1l-0.4,0.1
	l-0.4,0.1l-0.4,0.1l-0.4,0l-0.4,0l-0.4,0l-0.5,0l0,0c2.6,3.3,4,7.8,4,12.6c0,3.9-1.2,7.3-3,10.7c-1.1,2.1-2.3,4.2-4.3,5.4
	c-0.5,0.3-1.1,0.5-1.8,0.7l1.3,0.4v1l-1.6-0.3v2.7h-0.7v-3.5c-0.2,0-0.5,0.1-0.7,0.1v11.9h-0.7V48.3c-0.2,0-0.3,0-0.5,0v4.8h-0.7V50
	L56,51.2l-1.4-1.3v-0.8l1.1,1.1v-1.2h-3.5v3.5l1.7-2v1.5l-2.2,2.5l-2.2-2.5v-1.5l1.7,2v-3.5h-3.3v2.6l0.3-0.3V52l-0.3,0.3v8.2h-0.5
	v-7.8l-0.6,0.6L45.8,52v-0.8l1.1,1.1l0.1-2.5c-0.4,0.4-1,0.9-1.6,1.2v2.4H45v-2.2c-0.3,0.1-0.7,0.2-1.1,0.2c-1.3,0-2.1-0.8-2.5-1.5
	c-1.4,0-2.1-0.5-2.4-0.9h-2.1c0,0,0-0.3,0.3-0.5c0.3-0.1,1.2-0.5,1.2-0.5l-1.5,0V13.2c0,0,12.2,0,17.5,0c2.1,0,4,0.4,5.7,1L60,13.8
	l-0.1-0.3l-0.1-0.3l-0.1-0.3l-0.1-0.3l-0.1-0.4l0-0.4l0-0.4l0-0.4l0-0.4l0-0.4l0.1-0.4l0.1-0.3l0.1-0.3l0.1-0.3l0.1-0.3l0.1-0.3
	L60,8.3l0.1-0.3l0.1-0.2l0.1-0.2l0.1-0.2l0.1-0.2l0.2-0.2L61,6.7l0.2-0.2l0.2-0.2l0.2-0.2l0.2-0.2l0.2-0.2l0.2-0.2l0.2-0.2l0.2-0.2
	l0.2-0.2L63,4.9l0.2-0.1l0.2-0.1l0.2-0.1l0.2-0.1l0.2-0.1l0.3-0.1l0.3-0.1l0.3-0.1L65.2,4l0,0l0,0h0l0,0h0l0,0l0,0L64.7,4l0.1-0.8
	l2.6,0.4l0.6-3.3l0.8,0.1l-0.6,3.3l2.5,0.4l-0.1,0.8L68,4.5l-1.9,11l-0.8-0.1l1.8-10.7l0,0l0,0l0,0l0,0l0,0l0,0l-0.3,0l-0.3,0
	l-0.3,0l-0.3,0l-0.3,0l-0.3,0l-0.3,0.1l-0.3,0.1l-0.3,0.1L64.3,5L64,5.1l-0.3,0.1l-0.3,0.1l-0.2,0.2L63,5.7l-0.2,0.2l-0.2,0.2
	l-0.2,0.2l-0.2,0.2L62,6.7l-0.2,0.2l-0.2,0.2l-0.2,0.2l-0.2,0.2l-0.1,0.3L61,8.1l-0.1,0.3l-0.1,0.3L60.7,9l-0.1,0.3l-0.1,0.3
	l-0.1,0.3l0,0.3l0,0.3l0,0.3l0,0.3l0,0.3l0,0.3l0,0.3l0.1,0.3l0.1,0.3l0.1,0.3l0.1,0.3l0.1,0.3l0.1,0.3l0.1,0.3l0.1,0.3l0.2,0.2
	l0.2,0.2l0.1,0.1c1,0.5,1.9,1.2,2.7,1.9l0,0l0.3,0.1L65,17l0.3,0.1l0.5,0.1l0.5,0l0.4,0l0.4,0l0.4-0.1l0.4-0.1l0.4-0.1l0.4-0.2
	l0.4-0.2l0.3-0.2l0.3-0.2l0.3-0.3l0.3-0.3l0.3-0.3l0.3-0.3l0.2-0.3l0.2-0.4l0.2-0.4l0.2-0.4l0.2-0.4l0.1-0.4l0.1-0.4l0.1-0.4
	l0.1-0.4l0-0.4l0-0.4l0-0.4l0-0.4l-0.1-0.4L72,8.8l-0.1-0.4l-0.2-0.4l-0.1-0.2l-0.1-0.2l-0.1-0.2l-0.1-0.2l-0.1-0.2l-0.1-0.2l0-0.2
	l0-0.2l0-0.2l0-0.2l0-0.2l0-0.2l0-0.2l0-0.2l0-0.2l0.1-0.2L71.4,4l0.1-0.2l0.1-0.2l0.1-0.2l0.1-0.2L71.9,3l0.2-0.2l0.2-0.2l0.2-0.2
	l0.2-0.2l0.2-0.1l0.2-0.1l0.3-0.1l0.3-0.1l0.3-0.1l0.3-0.1l0,0l0,0l0,0l0,0l0,0l0,0l0,0.1l0,0l0,0.1l0,0.1l0,0.1l0,0.1l0,0.1l0,0.1
	l0,0.1l0,0.1l0,0.1l0,0.1l0,0.1l0,0.1l-0.1,0.1l-0.1,0.1l0,0.1l0,0.1l0,0.1l0,0.1l0.1-0.1L73.4,3l0.1-0.1l0.1-0.1l0.1-0.1l0.1-0.1
	l0.1-0.1L74,2.4l0.1-0.1l0.1-0.1l0.1-0.1l0.1-0.1L74.6,2L74.8,2l0.1-0.1l0.1,0l0.1,0l0.1,0l0.1,0l0.1,0l0.1,0l0.1,0l0.1,0l0.1,0
	l0.1,0l0.1,0l0.1,0l0.1,0l0.1,0l0.1,0L76.7,1.7L76.7,1.7z M40.7,41.1h0.2v-0.2h-0.2V41.1z M39.3,37.1h-0.2v0.2h0.2V37.1z M41,49.1
	c0-0.1,0-0.1-0.1-0.2h-1.1c0.2,0.1,0.4,0.2,0.7,0.2C40.7,49.2,40.8,49.1,41,49.1z M55.7,17.9h0.2v-0.3h-0.2V17.9z M50.9,19.9h0.2
	v-0.4h-0.2V19.9z M48.9,19h0.5v-0.3h-0.5V19z M42.6,35.1h0.3v-0.2h-0.3V35.1z M42.6,39l1.8-0.1l-1.7-0.5L42.6,39z M42.1,37h0.3v-0.1
	h-0.3V37z M45,48.9h-0.2c-0.5,0.3-1.3,0.8-2.6,0.9c0.3,0.4,0.8,0.8,1.6,0.8c0.4,0,0.8-0.1,1.2-0.3V48.9z M43.2,42.9v-0.3h-0.4v0.3
	H43.2z M43.8,44.1v-0.2h-0.2v0.2H43.8z M46.4,48.9h-1V50C45.8,49.7,46.2,49.3,46.4,48.9z M47.7,48.9h-0.1c0,0.1-0.1,0.1-0.1,0.2
	l-0.1,3.1l0.3-0.3V48.9z M49.7,41l-1.3-0.1c0,0-0.4,0.1-0.6,0.3v0.4h1.9V41z M52.5,42.6L51.8,42l-0.1,0.2l0.8,0.5V42.6z M55.8,48.2
	l-1.5,0.1c0,0,0.8,0.2,1.5,0.4V48.2z M54.4,44.1H54v0.1L54.4,44.1z M57.3,48.3c-0.3,0-0.6,0-1,0v0.6c0.1,0,0.1,0,0.2,0.1h-0.2v1.2
	l1-0.9V48.3z M56.3,42v-0.1h-0.2V42H56.3z M58.9,25.1c-1.1-2-7-4-7-4c-0.3,0.5-0.9,0.6-0.9,0.6s-0.8,0-1.1,0s-0.5-0.3-0.5-0.3v0.3
	h-3c0,0,0.3,7.5,0.2,8.5c0,1-0.9,1.4-0.9,1.4s0.9,0.7,0.8,3.1c-0.2,2.4-1.2,3-1.2,3l0.2-6.7h-0.3v1.1c0,0.5-0.3,2.2-0.3,2.2V38h0.2
	v1l0.7,0.4l-0.3,0.1c0,0,0.7,0.4,0.8,0.6c0.1,0.3,0.3,0.6,0.3,0.6h-1.4c-1-0.1-3-0.5-3-0.5v0.5l-0.4,0.5l0.2,0.1l0.4,0.4l1.4-0.6
	h0.5l1.7,0.4h0.6c0.3-0.3,0.5-0.4,0.5-0.4h0.4l0.1-0.9h1.9l0,0.7l0.6,0.1c-0.2-0.2-0.2-0.5-0.2-0.5l0.1-0.1l0.7,0.3
	c0,0,0.1-0.3,0.8-0.3s1.9,1.7,1.9,1.7c-0.1-0.4-0.5-1.9-0.5-1.9s0.8,0.3,1,0.5c0.2,0.2,0.1,0.5,0.1,0.5c-0.1,0.1,0.1,0.3,0.1,0.4
	c0,0.1-0.5,0.7-0.5,0.7l0,0.3c1.7,0.1,2.3,0.2,2.3,0.2s0-0.1-0.2-0.3c-0.2-0.1-0.7,0-0.7,0s-0.4-0.8-0.6-1.1
	c-0.2-0.2-0.2-0.5-0.2-0.5l0.5-0.5c-0.4-0.4,0.1-0.6,0.1-0.6c0.4-0.5,2.7-1.1,2.7-1.1s2.1-1.7,2.1-8.1
	C59.9,29.8,59.9,26.9,58.9,25.1z M65.9,25.8h-0.4v0.1L65.9,25.8L65.9,25.8z M66.3,26.7l1.2,1.2l0.1-0.1l-1.2-1.3L66.3,26.7z
	 M74.8,17.6V18l-0.3,1.1c0,0-0.3,1.2-0.3,1.8c0,0.6-0.4,1.2-0.4,1.2l-0.1,1.6c0,0,0,1.8-0.4,2.9c-0.4,1.1-1.4,3.9-1.4,2.2
	c0,0-2.2-1.3-2.2-5.4c0-1.2,0.7-7,3.6-7l-0.2,0.5l0.3,0l0.2-0.3h0.1v0.1H74l0.2-0.2l0.1,0.1v0.3L74.8,17.6z M72.5,22.5l-0.4,0.1V23
	l0.4-0.2V22.5z M74,17.8L73.3,18l0.1,0.2h0.3L74,17.8z M98,30.8l0.9,0.4l0.6-1.3l-1-0.3L98,30.8z M94.1,29.7l1.1,0.5l0.9-0.1V29
	l-1.9,0.3L94.1,29.7z M84.4,35.3h-2.8v1.4h2.8V35.3z M86.2,36.7h1.2v-0.6l-1.2-0.5V36.7z M68.5,47.8v0.4h-0.2v-0.4h-1.2l-1,0.3
	c0,0,0.7,0.7,1.8,1c0.4,0.1,0.6-0.6,0.6-0.6l0.1,0.4l2.5,0.3V48L68.5,47.8z M97.9,27.6l-0.7-1.9l1-0.2l0.2-0.1l0-0.5
	c0,0,0.2-0.7,0.2-1.1c0-5.6-4.1-8.4-9.3-9.6c0.7-0.4,1.1-0.9,1.1-0.9s-0.4,0-0.5-0.6c0,0-1.3,0.4-2.9-0.6c-0.2-0.1-0.7-0.4-0.7-0.4
	L85,11.4c0,0-0.1,1.3,1.2,2.3c-1.1-0.1-2.2-0.2-3.4-0.2c-2.5,0-3.4,0.7-3.4,0.7l1.4,7.1c0,0,1.3-0.5,3-0.5c5.6,0,5.7,4,5.7,4
	s1.2,0.4,1.7,0.4c0.5,0,1-0.4,1-0.4c0.2,0.2,0.8,0.3,1,0.2c0.2-0.1,0.7,0,0.7,0c2.1,2.7,4.7,4.1,4.7,4.1c-0.1-0.3-0.9-1.6-0.9-1.6
	H97.9z M88.6,8.3l-2.1-0.5v1.3l2.1,0.4V8.3z M87.3,11.2c0,0,1,1.3,2.9,1.5v-1.5c0,0-1.1-0.9-1.3-1.5h-1.6V11.2z M92.3,10.5v-0.5
	l0.2-0.3V9.4c0,0,0,0,0-0.1c0-0.1-0.2-0.6-0.2-0.6h-1.7C90.5,10.4,92.3,10.5,92.3,10.5z M81.8,10.5c-0.5,0.4-0.4,1.3-0.4,1.3
	c1.4,1.3,3.1,1.2,3.1,1.2l-0.3-0.6l0.5,0.1c-0.1-0.4-1.1-1.8-1.1-1.8h0.3V9.3l-1.3-0.9H81l-0.3,1.4C81,10.2,81.8,10.5,81.8,10.5z
	 M98.9,37.8C98.9,43,95,49,87.6,49h-0.4l-1.3-0.9c0,0-1.6-0.1-3.8-0.1c-4,0-8.7-0.9-10.7-5c-1.5-1.3-3.1-3.5-3.1-7.5H74v0.2
	c0,0,1-0.2,1.7-0.3l0.3-0.3L75.8,35l-0.3-0.9l1.7,1l-0.7-1.4l3.1,1.9l0.5,0v0.6l-1.8,0.5v1.5l0.5,0.2c0,0,1.2,2.5,5.1,2.5
	c1,0,1.5-0.3,1.5-0.3v1c0,0,3.8-0.2,3.8-3c0-1.3-1.9-2.4-1.9-2.4v-0.8h-1.2v0.3l-0.3-0.1v1.2h-1.2v-1.3h0.7l-1.8-0.8L83,32.9
	l-0.5,0.6l-0.1,0.4c0,0-6.3-1.6-8.5-3.2c0,0-0.2-0.6,0.5-2.4c0.4-1.1,1.2-1.8,1.2-6.3c0,0,1.2,0.6,1.8,1.7c0.6,1.1,1.2,1.7,1.2,1.7
	s-0.8-1.1-0.9-1.5l0.4,0l-0.1-0.2v-0.3l0.5-0.4l-0.4-0.4l-0.1,0.6l-0.3,0.2l-0.4,0v-0.5H77l0-1.6l0.4-0.6c0,0,0.1-0.4-0.3-1h-0.9
	l0.7-1l-0.9,0.1l0-0.6l0.5-0.6l-0.3-0.3c0,0-0.8,0.9-1.3,1l0-0.4l0.5-0.1c0,0,0.3-1.6-1.9-1.5c0,0,1.8-2,4.5-2.9l2.3,6.8L78.8,23
	l2.5,1.9l1.2,4.8l-0.7-4.5l6.7,2.2l0.5,0l1.1,0.5l4,1.7v0.9l1.1-0.3C95.1,30.4,98.9,32.6,98.9,37.8z M72.8,41.2l-1.2-0.7l-0.2,1
	l1-0.5v0.7L72.8,41.2z M72.8,40.2L72.6,40v0.5L72.8,40.2z M73.9,41.9h-0.3v0.6h0.3V41.9z M75.6,39.4h-0.3v0.2L74.9,40h0.2L75.6,39.4
	z M77.5,40.2h-0.4v0.1h0.4V40.2z M78.9,42.5l-0.2-0.1v0.4h0.2V42.5z M79,42h-0.3v0.3l0.2,0.1l0.2-0.3V42z M88.5,42.3l-0.5-0.6v0.1
	l0.3,0.6L88.5,42.3z M96.9,41.1l0.2-0.2h-0.3L96.9,41.1z"/>
</svg>
